# xmcd
#
# Track frame offsets:
#	150
#	11257
#	27761
#	43971
#	56052
#	72094
#	85898
#	102604
#	123123
#	150121
#	170852
#	185508
#	203688
#	235531
#
# Disc length: 3510 seconds
#
# Revision: 0
# Processed by: cddbd v1.5.2PL0 Copyright (c) Steve Scherf et al.
# Submitted via: EasyCDDAExtractor 2010.4.0.0
#
DISCID=ad0db40e
DTITLE=Various Artist - Girls Form Outer Space
DYEAR=2010
DGENRE=Electronic
TTITLE0=Filipsson and Lindblad - A Splendor In The Grass
TTITLE1=Flight Facilities - Crave You (Feat. Giselle) (Ted and Francis Dub Mix)
TTITLE2=Acos Coolkas - Free Flight (Sare Havlicek Mix)
TTITLE3=Filip Nikolic - Liquid Disco
TTITLE4=Simian Mobile Disco - Cruel Intentions (Greg Wilson Re-Edit)
TTITLE5=Arcade Lover - Fantasy Lines
TTITLE6=Holy Ghost! - I Know I Hear
TTITLE7=Martin Virgin - Happy Days (Ajello Remix)
TTITLE8=Crazy P - Love On The Line (Unabombers Vox Mix)
TTITLE9=Shit Robot - Simple Things (Work It Out) (Todd Terje Version)
TTITLE10=Lauer - Delta NRG (Mock N Toof Remix)
TTITLE11=Joakim - Spiders (Ewan Pearson Remix)
TTITLE12=Hardton - Flawless (Snuff Crew Remix)
TTITLE13=Acid Washed - Change
EXTD=
EXTT0=
EXTT1=
EXTT2=
EXTT3=
EXTT4=
EXTT5=
EXTT6=
EXTT7=
EXTT8=
EXTT9=
EXTT10=
EXTT11=
EXTT12=
EXTT13=
PLAYORDER=
